<svg width="34" height="37" viewBox="0 0 34 37" fill="none" xmlns="http://www.w3.org/2000/svg">
<path fill-rule="evenodd" clip-rule="evenodd" d="M16.5586 0.0588226C15.9336 0.0588226 15.3341 0.301659 14.8921 0.73391C14.4502 1.16616 14.2019 1.75242 14.2019 2.36371L14.2019 29.0682L4.08684 19.171C3.86773 18.9567 3.6076 18.7867 3.3213 18.6707C3.03501 18.5547 2.72817 18.495 2.41829 18.495C2.10841 18.495 1.80156 18.5547 1.51527 18.6707C1.22898 18.7867 0.968849 18.9567 0.749731 19.171C0.530613 19.3853 0.356799 19.6397 0.238213 19.9197C0.119627 20.1997 0.0585938 20.4998 0.0585938 20.8028C0.0585938 21.1059 0.119627 21.406 0.238213 21.686C0.356799 21.966 0.530613 22.2204 0.749731 22.4347L14.89 36.264C15.109 36.4787 15.369 36.649 15.6553 36.7652C15.9417 36.8814 16.2486 36.9412 16.5586 36.9412C16.8686 36.9412 17.1755 36.8814 17.4618 36.7652C17.7482 36.649 18.0082 36.4787 18.2271 36.264L32.3675 22.4347C32.5866 22.2204 32.7604 21.966 32.879 21.686C32.9976 21.406 33.0586 21.1059 33.0586 20.8028C33.0586 20.4998 32.9976 20.1997 32.879 19.9197C32.7604 19.6397 32.5866 19.3853 32.3675 19.171C31.9249 18.7382 31.3247 18.495 30.6989 18.495C30.389 18.495 30.0822 18.5547 29.7959 18.6707C29.5096 18.7867 29.2495 18.9567 29.0303 19.171L18.9153 29.0682L18.9153 2.36371C18.9153 1.75242 18.667 1.16616 18.225 0.73391C17.7831 0.301659 17.1836 0.0588226 16.5586 0.0588226V0.0588226Z" fill="white"/>
</svg>
