<svg width="48" height="12" viewBox="0 0 48 12" fill="none" xmlns="http://www.w3.org/2000/svg">
<path d="M1 5.25C0.585786 5.25 0.25 5.58579 0.25 6C0.25 6.41421 0.585786 6.75 1 6.75V5.25ZM47.5303 6.53033C47.8232 6.23744 47.8232 5.76256 47.5303 5.46967L42.7574 0.696699C42.4645 0.403806 41.9896 0.403806 41.6967 0.696699C41.4038 0.989592 41.4038 1.46447 41.6967 1.75736L45.9393 6L41.6967 10.2426C41.4038 10.5355 41.4038 11.0104 41.6967 11.3033C41.9896 11.5962 42.4645 11.5962 42.7574 11.3033L47.5303 6.53033ZM1 6.75H47V5.25H1V6.75Z" fill="white"/>
</svg>
