<svg width="467" height="721" viewBox="0 0 467 721" fill="none" xmlns="http://www.w3.org/2000/svg">
<path d="M233.5 0C104.519 0 0 161.469 0 360.5C0 559.531 104.519 721 233.5 721C362.481 721 467 559.531 467 360.5C467 161.469 362.926 0 233.5 0ZM291.764 502.541C285.537 574.641 249.511 629.04 229.052 655.808C237.948 637.243 241.506 621.701 243.285 610.907C244.619 602.272 245.064 592.774 245.509 574.21C245.953 562.121 245.953 550.032 245.509 538.375C245.064 526.719 244.174 514.63 243.285 503.405C240.616 480.091 236.169 457.641 230.387 435.622C224.16 413.604 215.71 392.448 206.37 369.998C197.03 347.548 186.8 322.939 181.018 295.74C180.129 291.854 172.123 255.156 176.57 214.141C183.687 140.314 226.829 87.2108 247.288 65.1922C238.837 86.3473 230.387 113.115 225.939 145.063C224.605 154.993 221.936 181.761 224.16 215.005C225.939 237.887 230.387 259.905 237.058 281.06C243.73 302.216 253.514 323.371 263.299 347.116C273.084 370.43 282.424 396.334 287.316 422.67C288.65 428.714 295.322 463.253 291.764 502.541Z" fill="#815345" fill-opacity="0.03"/>
</svg>
