<svg width="25" height="27" viewBox="0 0 25 27" fill="none" xmlns="http://www.w3.org/2000/svg">
<path d="M9.41211 10.9325V19.6786C9.41211 19.9685 9.52729 20.2466 9.73232 20.4516C9.93734 20.6566 10.2154 20.7718 10.5054 20.7718C10.7953 20.7718 11.0734 20.6566 11.2784 20.4516C11.4834 20.2466 11.5986 19.9685 11.5986 19.6786V10.9325C11.5986 10.6426 11.4834 10.3645 11.2784 10.1595C11.0734 9.95447 10.7953 9.83929 10.5054 9.83929C10.2154 9.83929 9.93734 9.95447 9.73232 10.1595C9.52729 10.3645 9.41211 10.6426 9.41211 10.9325Z" fill="#6C6B6B"/>
<path d="M14.8794 9.83929C15.1693 9.83929 15.4474 9.95447 15.6524 10.1595C15.8575 10.3645 15.9726 10.6426 15.9726 10.9325V19.6786C15.9726 19.9685 15.8575 20.2466 15.6524 20.4516C15.4474 20.6566 15.1693 20.7718 14.8794 20.7718C14.5894 20.7718 14.3114 20.6566 14.1063 20.4516C13.9013 20.2466 13.7861 19.9685 13.7861 19.6786V10.9325C13.7861 10.6426 13.9013 10.3645 14.1063 10.1595C14.3114 9.95447 14.5894 9.83929 14.8794 9.83929Z" fill="#6C6B6B"/>
<path d="M17.0658 4.37302H23.6253C23.9153 4.37302 24.1933 4.4882 24.3984 4.69322C24.6034 4.89825 24.7186 5.17632 24.7186 5.46627C24.7186 5.75622 24.6034 6.03429 24.3984 6.23932C24.1933 6.44434 23.9153 6.55952 23.6253 6.55952H22.4162L20.7719 21.3753C20.6234 22.7124 19.987 23.9478 18.9845 24.845C17.982 25.7423 16.6838 26.2382 15.3385 26.2381H10.0471C8.70175 26.2382 7.40359 25.7423 6.40109 24.845C5.39859 23.9478 4.76217 22.7124 4.61364 21.3753L2.9672 6.55952H1.76025C1.4703 6.55952 1.19222 6.44434 0.987199 6.23932C0.782174 6.03429 0.666992 5.75622 0.666992 5.46627C0.666992 5.17632 0.782174 4.89825 0.987199 4.69322C1.19222 4.4882 1.4703 4.37302 1.76025 4.37302H8.31977C8.31977 3.21322 8.7805 2.10093 9.6006 1.28083C10.4207 0.460727 11.533 0 12.6928 0C13.8526 0 14.9649 0.460727 15.785 1.28083C16.6051 2.10093 17.0658 3.21322 17.0658 4.37302V4.37302ZM12.6928 2.18651C12.1129 2.18651 11.5567 2.41687 11.1467 2.82692C10.7366 3.23697 10.5063 3.79312 10.5063 4.37302H14.8793C14.8793 3.79312 14.6489 3.23697 14.2389 2.82692C13.8288 2.41687 13.2727 2.18651 12.6928 2.18651V2.18651ZM5.16901 6.55952L6.78703 21.1348C6.87634 21.9369 7.25828 22.6779 7.85976 23.2161C8.46124 23.7542 9.24003 24.0517 10.0471 24.0516H15.3385C16.1452 24.0512 16.9234 23.7534 17.5244 23.2154C18.1255 22.6773 18.5071 21.9365 18.5964 21.1348L20.2187 6.55952H5.1712H5.16901Z" fill="#6C6B6B"/>
</svg>
