<svg width="21" height="26" viewBox="0 0 21 26" fill="none" xmlns="http://www.w3.org/2000/svg">
<path d="M19.6878 23.3925H1.31767C0.969665 23.3925 0.635913 23.5298 0.389837 23.7743C0.14376 24.0188 0.00551492 24.3505 0.00551492 24.6962C0.00551492 25.042 0.14376 25.3736 0.389837 25.6181C0.635913 25.8626 0.969665 26 1.31767 26H19.6878C20.0358 26 20.3696 25.8626 20.6157 25.6181C20.8618 25.3736 21 25.042 21 24.6962C21 24.3505 20.8618 24.0188 20.6157 23.7743C20.3696 23.5298 20.0358 23.3925 19.6878 23.3925ZM1.31767 20.7849H1.43576L6.90745 20.2895C7.50684 20.2302 8.06744 19.9678 8.49516 19.5464L20.3046 7.81248C20.7629 7.33134 21.0106 6.68929 20.9934 6.02702C20.9762 5.36474 20.6955 4.73625 20.2127 4.27927L16.6174 0.706955C16.1482 0.269015 15.5333 0.0177306 14.8897 0.000903193C14.2462 -0.0159242 13.6188 0.202879 13.1271 0.615691L1.31767 12.3496C0.893537 12.7746 0.629451 13.3316 0.569741 13.9271L0.00551492 19.3638C-0.0121612 19.5548 0.0127768 19.7473 0.0785511 19.9276C0.144325 20.1079 0.249316 20.2715 0.38604 20.4068C0.508648 20.5277 0.654056 20.6233 0.813925 20.6882C0.973795 20.753 1.14498 20.7859 1.31767 20.7849ZM14.7935 2.53223L18.3757 6.0915L15.7514 8.63385L12.2348 5.13976L14.7935 2.53223ZM3.11532 14.1488L10.5028 6.86073L14.0456 10.3809L6.69751 17.682L2.76104 18.047L3.11532 14.1488Z" fill="#6C6B6B"/>
</svg>
