<svg width="40" height="40" viewBox="0 0 40 40" fill="none" xmlns="http://www.w3.org/2000/svg">
<path fill-rule="evenodd" clip-rule="evenodd" d="M40 20C40 31.0457 31.0457 40 20 40C8.9543 40 0 31.0457 0 20C0 8.9543 8.9543 0 20 0C31.0457 0 40 8.9543 40 20ZM30.8493 12.0073C30.7514 11.9976 30.6526 11.9976 30.5546 12.0073H10.4296C10.3006 12.0092 10.1725 12.0277 10.0487 12.0624L20.4346 21.9856L30.8493 12.0073ZM21.4487 22.9648L31.9138 12.9657C31.9652 13.1008 31.9943 13.2427 32 13.3864V27.1782C32 27.544 31.8486 27.8948 31.579 28.1534C31.3094 28.4121 30.9437 28.5574 30.5625 28.5574H10.4375C10.0563 28.5574 9.69062 28.4121 9.42103 28.1534C9.15145 27.8948 9 27.544 9 27.1782V13.3864C9.00152 13.2699 9.01843 13.154 9.05031 13.0416L19.4219 22.9648C19.6912 23.2217 20.0555 23.3659 20.4353 23.3659C20.8151 23.3659 21.1794 23.2217 21.4487 22.9648ZM10.4231 27.1782H11.4222L16.6619 22.1925L15.6484 21.2201L10.4231 26.1921V27.1782ZM29.5419 27.1782H30.5481L30.5409 26.1921L25.3156 21.2201L24.3022 22.1925L29.5419 27.1782Z" fill="white"/>
</svg>
