<svg width="22" height="22" viewBox="0 0 22 22" fill="none" xmlns="http://www.w3.org/2000/svg">
<path d="M16.1777 0.322301C16.0757 0.219954 15.9545 0.138788 15.821 0.0834739C15.6876 0.0281601 15.5445 -0.000208394 15.4 1.15244e-06H6.6C6.45552 -0.000208394 6.31243 0.0281601 6.17896 0.0834739C6.04549 0.138788 5.92428 0.219954 5.8223 0.322301L0.322301 5.8223C0.219954 5.92428 0.138788 6.04549 0.0834739 6.17896C0.0281601 6.31243 -0.000208394 6.45552 1.15244e-06 6.6V15.4C1.15244e-06 15.6926 0.115501 15.972 0.322301 16.1777L5.8223 21.6777C5.92428 21.78 6.04549 21.8612 6.17896 21.9165C6.31243 21.9718 6.45552 22.0002 6.6 22H15.4C15.6926 22 15.972 21.8845 16.1777 21.6777L21.6777 16.1777C21.78 16.0757 21.8612 15.9545 21.9165 15.821C21.9718 15.6876 22.0002 15.5445 22 15.4V6.6C22.0002 6.45552 21.9718 6.31243 21.9165 6.17896C21.8612 6.04549 21.78 5.92428 21.6777 5.8223L16.1777 0.322301ZM12.1 16.5H9.9V14.3H12.1V16.5ZM12.1 12.1H9.9V5.5H12.1V12.1Z" fill="white"/>
</svg>
