<svg width="33" height="33" viewBox="0 0 33 33" fill="none" xmlns="http://www.w3.org/2000/svg">
<path d="M32.984 18.0744C32.9942 18.0084 32.9995 17.9418 33 17.875V9.625C32.9971 7.07317 31.9822 4.62668 30.1777 2.82226C28.3733 1.01785 25.9268 0.00286597 23.375 0H9.625C7.07317 0.00286597 4.62668 1.01785 2.82226 2.82226C1.01785 4.62668 0.00286597 7.07317 0 9.625V23.375C0.00286597 25.9268 1.01785 28.3733 2.82226 30.1777C4.62668 31.9822 7.07317 32.9971 9.625 33H17.875C17.9418 32.9995 18.0084 32.9942 18.0744 32.984C18.0868 32.9821 18.0991 32.9806 18.1115 32.9783C18.1763 32.9672 18.2402 32.9515 18.3028 32.9313L18.3098 32.9295C22.8186 31.4265 31.4265 22.8186 32.9295 18.3098L32.9313 18.303C32.9515 18.2404 32.9671 18.1764 32.9782 18.1115C32.9804 18.0991 32.9821 18.0867 32.984 18.0742V18.0744ZM2.75 23.375V9.625C2.75209 7.80228 3.47709 6.05481 4.76595 4.76595C6.05481 3.47709 7.80228 2.75209 9.625 2.75H23.375C25.1977 2.75209 26.9452 3.47709 28.234 4.76595C29.5229 6.05481 30.2479 7.80228 30.25 9.625V16.5H26.125C23.5732 16.5029 21.1267 17.5178 19.3223 19.3223C17.5178 21.1267 16.5029 23.5732 16.5 26.125V30.25H9.625C7.80228 30.2479 6.05481 29.5229 4.76595 28.234C3.47709 26.9452 2.75209 25.1977 2.75 23.375V23.375ZM19.25 29.4143V26.125C19.2521 24.3023 19.9771 22.5548 21.266 21.266C22.5548 19.9771 24.3023 19.2521 26.125 19.25H29.4143C27.3235 22.6022 22.6022 27.3237 19.25 29.4143Z" fill="#6C6B6B"/>
</svg>
