<svg width="1216" height="553" viewBox="0 0 1216 553" fill="none" xmlns="http://www.w3.org/2000/svg">
<path d="M77.1639 67.8687C75.4245 66.9516 74.4632 65.7003 74.1279 65.2648C72.3231 62.9194 72.1515 60.4106 72.0962 59.5842C72.054 58.923 72.035 57.5771 72.4283 55.9998C73.1899 52.9429 75.9578 47.4325 81.52 46.1462C82.7778 45.8537 87.0996 45.1173 89.8613 47.8511C91.7249 49.6943 91.9076 52.1719 92.0158 53.6493C92.4543 59.5777 89.5167 66.9522 84.0128 68.5385C83.0226 68.8243 80.4205 69.3533 77.6602 68.1092C77.4884 68.0344 77.3209 67.9514 77.1639 67.8687ZM87.5057 48.283C85.4234 47.1851 82.785 47.6527 81.9177 47.8555C77.1849 48.9507 74.7999 53.7548 74.1387 56.4211C73.8025 57.7698 73.8156 58.9067 73.8537 59.4653C73.9041 60.2311 74.0441 62.2691 75.5215 64.1938C75.8223 64.5847 76.7286 65.77 78.3779 66.5075C80.6747 67.539 82.8961 67.0311 83.5247 66.8503C88.0362 65.5539 90.6502 59.0436 90.2621 53.7808C90.1563 52.3891 90.0178 50.4786 88.6226 49.0989C88.2831 48.7615 87.9065 48.4943 87.5057 48.283Z" fill="white"/>
<path d="M76.2931 65.2237C76.0815 65.0541 75.8237 64.802 75.5805 64.4521C75.4306 64.2357 75.3244 64.0266 75.2447 63.8473C75.8325 63.7137 76.6781 63.452 77.586 62.9116C77.586 62.9116 79.2728 61.9054 80.3068 60.2646C82.3035 57.0985 79.9925 54.3911 81.4813 51.3269C82.0214 50.2124 83.2102 48.7588 86.1661 47.7089C86.5742 47.7762 87.1599 47.9371 87.7509 48.3385C87.9526 48.4765 88.1209 48.618 88.2642 48.7569C88.1524 48.7086 87.9823 48.6506 87.77 48.6126C85.9138 48.2675 83.6888 50.2044 82.8184 52.1057C81.6805 54.5946 83.3234 56.0152 82.8582 58.6001C82.5284 60.4274 81.1349 62.8502 76.2931 65.2237Z" fill="white"/>
<path d="M371.898 24.8918C370.279 26.0069 368.724 26.2777 368.183 26.3726C365.267 26.8826 362.966 25.8703 362.208 25.5357C361.603 25.2663 360.402 24.6585 359.187 23.5781C356.833 21.4847 353.236 16.4756 354.679 10.9517C355.003 9.70181 356.357 5.53185 360.06 4.35442C362.558 3.5591 364.837 4.54715 366.196 5.137C371.651 7.50001 376.819 13.5247 375.67 19.1361C375.464 20.1459 374.725 22.6962 372.341 24.5638C372.196 24.6813 372.044 24.7911 371.898 24.8918ZM359.349 6.64136C357.41 7.97633 356.6 10.5304 356.377 11.3927C355.151 16.0932 358.299 20.4354 360.354 22.2585C361.393 23.1823 362.406 23.6983 362.918 23.9238C363.62 24.2346 365.49 25.0565 367.881 24.641C368.367 24.556 369.837 24.3034 371.256 23.1848C373.236 21.629 373.817 19.4256 373.948 18.7849C374.894 14.187 370.34 8.85018 365.498 6.75135C364.217 6.19921 362.46 5.43523 360.59 6.0307C360.134 6.17487 359.722 6.38443 359.349 6.64136Z" fill="white"/>
<path d="M369.151 24.4354C368.903 24.5441 368.56 24.6555 368.137 24.7084C367.876 24.7408 367.641 24.7379 367.445 24.7253C367.6 24.1425 367.761 23.2721 367.703 22.2171C367.703 22.2171 367.595 20.2559 366.621 18.5785C364.744 15.3405 361.273 16.131 359.25 13.3901C358.513 12.3945 357.777 10.6669 358.219 7.56127C358.468 7.23106 358.883 6.78695 359.512 6.44974C359.728 6.33509 359.932 6.25171 360.121 6.18928C360.027 6.26584 359.896 6.38958 359.764 6.55998C358.597 8.04404 359.28 10.9138 360.56 12.5672C362.237 14.7303 364.257 13.9344 366.331 15.5461C367.797 16.6862 369.296 19.045 369.151 24.4354Z" fill="white"/>
<path d="M620.007 14.4548C619.811 12.4982 620.324 11.0059 620.502 10.4859C621.462 7.68632 623.459 6.15838 624.117 5.65603C624.645 5.25592 625.757 4.49708 627.289 3.95437C630.259 2.90195 636.381 2.16813 640.524 6.09607C641.463 6.98335 644.462 10.1806 643.707 13.9924C643.199 16.5639 641.234 18.0839 640.062 18.9896C635.361 22.6278 627.59 24.2491 623.229 20.5354C622.444 19.8675 620.567 17.9898 620.08 15.0014C620.048 14.8169 620.024 14.6314 620.007 14.4548ZM642.047 12.2667C641.813 9.92432 639.966 7.98245 639.319 7.37125C635.793 4.02941 630.47 4.69265 627.882 5.61311C626.572 6.07729 625.631 6.71579 625.187 7.05595C624.576 7.52065 622.954 8.76233 622.164 11.0567C622.004 11.5233 621.516 12.9334 621.812 14.7157C622.22 17.2003 623.869 18.7722 624.367 19.1966C627.939 22.2428 634.81 20.8287 638.984 17.5999C640.086 16.7435 641.603 15.5734 641.983 13.6484C642.077 13.179 642.092 12.7175 642.047 12.2667Z" fill="white"/>
<path d="M621.732 12.2688C621.756 11.9988 621.824 11.6447 621.982 11.2487C622.079 11.0043 622.195 10.8003 622.301 10.6348C622.737 11.0513 623.422 11.6118 624.373 12.0706C624.373 12.0706 626.144 12.9217 628.083 12.8782C631.825 12.7953 632.807 9.37387 636.183 8.9238C637.411 8.75891 639.279 8.94775 641.786 10.833C641.955 11.2104 642.145 11.7876 642.136 12.5019C642.132 12.7464 642.107 12.9648 642.071 13.1609C642.049 13.041 642.004 12.8672 641.918 12.6692C641.181 10.931 638.338 10.1449 636.272 10.4686C633.569 10.8937 633.291 13.0478 630.879 14.0868C629.173 14.8205 626.384 14.9959 621.732 12.2688Z" fill="white"/>
<path d="M573.007 502.455C572.812 500.498 573.324 499.006 573.503 498.486C574.462 495.686 576.459 494.158 577.118 493.656C577.646 493.256 578.757 492.497 580.29 491.954C583.259 490.902 589.382 490.168 593.525 494.096C594.463 494.983 597.463 498.181 596.708 501.992C596.2 504.564 594.234 506.084 593.062 506.99C588.361 510.628 580.59 512.249 576.229 508.535C575.444 507.868 573.567 505.99 573.081 503.001C573.048 502.817 573.025 502.631 573.007 502.455ZM595.047 500.267C594.813 497.924 592.967 495.982 592.319 495.371C588.793 492.029 583.471 492.693 580.883 493.613C579.573 494.077 578.632 494.716 578.187 495.056C577.576 495.521 575.954 496.762 575.165 499.057C575.005 499.523 574.517 500.933 574.812 502.716C575.22 505.2 576.87 506.772 577.368 507.197C580.939 510.243 587.81 508.829 591.985 505.6C593.087 504.743 594.603 503.573 594.984 501.648C595.077 501.179 595.092 500.717 595.047 500.267Z" fill="white"/>
<path d="M574.732 500.269C574.757 499.999 574.825 499.645 574.982 499.249C575.08 499.004 575.196 498.8 575.301 498.635C575.737 499.051 576.422 499.612 577.374 500.071C577.374 500.071 579.144 500.922 581.083 500.878C584.825 500.795 585.807 497.374 589.184 496.924C590.411 496.759 592.28 496.948 594.787 498.833C594.956 499.21 595.145 499.788 595.137 500.502C595.133 500.746 595.108 500.965 595.071 501.161C595.05 501.041 595.004 500.867 594.919 500.669C594.182 498.931 591.338 498.145 589.273 498.469C586.569 498.894 586.291 501.048 583.879 502.087C582.174 502.82 579.384 502.996 574.732 500.269Z" fill="white"/>
<path d="M1195.63 41.0255C1193.67 40.8677 1192.29 40.0962 1191.81 39.828C1189.23 38.383 1188.08 36.1446 1187.71 35.4068C1187.41 34.8157 1186.86 33.5861 1186.6 31.9814C1186.1 28.8716 1186.47 22.7165 1191.08 19.3433C1192.12 18.579 1195.8 16.1999 1199.41 17.6249C1201.85 18.5851 1203 20.7905 1203.68 22.1058C1206.42 27.3822 1206.62 35.3177 1202.19 38.9436C1201.39 39.5963 1199.21 41.1074 1196.18 41.0511C1195.99 41.0501 1195.8 41.0398 1195.63 41.0255ZM1197.42 18.9497C1195.07 18.7608 1192.83 20.2298 1192.11 20.7577C1188.2 23.6286 1187.9 28.9837 1188.34 31.6949C1188.56 33.067 1189.02 34.1068 1189.28 34.6053C1189.62 35.2893 1190.55 37.1074 1192.67 38.2946C1193.1 38.5354 1194.4 39.268 1196.21 39.2963C1198.73 39.3397 1200.57 37.9979 1201.07 37.5841C1204.71 34.6156 1204.55 27.602 1202.12 22.9174C1201.47 21.6799 1200.59 19.9784 1198.77 19.2597C1198.32 19.0833 1197.87 18.9861 1197.42 18.9497Z" fill="white"/>
<path d="M1193.79 38.9373C1193.52 38.8647 1193.19 38.7346 1192.83 38.5087C1192.6 38.3689 1192.42 38.2185 1192.28 38.0851C1192.77 37.7308 1193.44 37.1571 1194.06 36.3028C1194.06 36.3028 1195.22 34.7136 1195.52 32.7981C1196.11 29.1015 1192.92 27.5233 1193.08 24.1203C1193.14 22.8832 1193.66 21.0789 1195.96 18.9495C1196.36 18.8507 1196.97 18.7679 1197.67 18.904C1197.91 18.9515 1198.12 19.0153 1198.3 19.0865C1198.18 19.0861 1198 19.0997 1197.79 19.1484C1195.95 19.5624 1194.67 22.2191 1194.62 24.3096C1194.55 27.0455 1196.62 27.7041 1197.21 30.2632C1197.63 32.0727 1197.3 34.8485 1193.79 38.9373Z" fill="white"/>
<path d="M1208.27 423.721C1206.68 424.88 1205.13 425.192 1204.59 425.302C1201.69 425.89 1199.36 424.94 1198.6 424.626C1197.98 424.373 1196.77 423.798 1195.52 422.75C1193.11 420.721 1189.38 415.81 1190.68 410.25C1190.97 408.992 1192.21 404.787 1195.88 403.51C1198.35 402.648 1200.66 403.574 1202.03 404.127C1207.55 406.343 1212.88 412.226 1211.88 417.866C1211.7 418.881 1211.03 421.451 1208.7 423.382C1208.56 423.503 1208.41 423.617 1208.27 423.721ZM1195.23 405.815C1193.33 407.202 1192.59 409.777 1192.39 410.645C1191.29 415.377 1194.55 419.633 1196.65 421.4C1197.72 422.295 1198.74 422.784 1199.26 422.995C1199.97 423.287 1201.86 424.058 1204.24 423.579C1204.73 423.481 1206.19 423.189 1207.58 422.032C1209.51 420.424 1210.04 418.206 1210.15 417.562C1210.97 412.94 1206.28 407.727 1201.38 405.76C1200.08 405.242 1198.31 404.526 1196.45 405.171C1196 405.328 1195.6 405.548 1195.23 405.815Z" fill="white"/>
<path d="M1205.51 423.339C1205.26 423.454 1204.92 423.575 1204.5 423.639C1204.24 423.679 1204.01 423.682 1203.81 423.675C1203.95 423.088 1204.09 422.214 1204 421.161C1204 421.161 1203.84 419.203 1202.82 417.552C1200.86 414.366 1197.41 415.25 1195.31 412.564C1194.55 411.589 1193.77 409.882 1194.12 406.765C1194.36 406.428 1194.77 405.973 1195.39 405.619C1195.6 405.499 1195.8 405.41 1195.99 405.343C1195.9 405.422 1195.77 405.549 1195.64 405.723C1194.52 407.238 1195.28 410.088 1196.6 411.706C1198.33 413.824 1200.33 412.974 1202.45 414.529C1203.94 415.629 1205.51 417.947 1205.51 423.339Z" fill="white"/>
<path d="M934.656 545.846C932.781 545.253 931.613 544.192 931.206 543.823C929.013 541.835 928.399 539.397 928.197 538.593C928.038 537.95 927.781 536.629 927.888 535.007C928.094 531.863 929.839 525.949 935.085 523.695C936.271 523.184 940.393 521.692 943.596 523.892C945.758 525.375 946.377 527.78 946.746 529.215C948.231 534.971 946.649 542.75 941.515 545.289C940.591 545.746 938.124 546.729 935.187 545.995C935.005 545.952 934.825 545.9 934.656 545.846ZM941.355 524.735C939.111 524.025 936.597 524.953 935.78 525.307C931.317 527.225 929.823 532.376 929.646 535.118C929.554 536.505 929.769 537.621 929.906 538.164C930.091 538.909 930.591 540.89 932.387 542.521C932.752 542.853 933.855 543.858 935.609 544.291C938.052 544.898 940.148 544.004 940.735 543.714C944.944 541.637 946.36 534.766 945.044 529.656C944.692 528.305 944.217 526.45 942.599 525.34C942.205 525.068 941.787 524.872 941.355 524.735Z" fill="white"/>
<path d="M933.329 543.398C933.091 543.268 932.792 543.066 932.491 542.765C932.305 542.579 932.163 542.392 932.053 542.229C932.608 541.994 933.393 541.586 934.191 540.893C934.191 540.893 935.672 539.603 936.398 537.805C937.801 534.334 935.046 532.08 935.967 528.8C936.3 527.608 937.212 525.966 939.935 524.408C940.348 524.402 940.953 524.456 941.606 524.746C941.829 524.846 942.02 524.955 942.185 525.067C942.067 525.039 941.889 525.012 941.674 525.012C939.786 525.003 937.94 527.304 937.421 529.329C936.743 531.981 938.612 533.087 938.614 535.713C938.614 537.57 937.673 540.202 933.329 543.398Z" fill="white"/>
<path d="M272.542 542.793C272.407 544.755 271.652 546.141 271.389 546.623C269.975 549.223 267.75 550.395 267.017 550.78C266.429 551.086 265.206 551.648 263.604 551.926C260.501 552.467 254.342 552.165 250.915 547.599C250.138 546.567 247.716 542.912 249.099 539.281C250.031 536.831 252.222 535.661 253.53 534.965C258.774 532.165 266.706 531.868 270.384 536.259C271.046 537.049 272.582 539.215 272.561 542.242C272.563 542.43 272.554 542.616 272.542 542.793ZM250.447 541.26C250.286 543.609 251.781 545.832 252.317 546.543C255.233 550.428 260.592 550.666 263.298 550.192C264.667 549.953 265.701 549.481 266.197 549.221C266.877 548.865 268.684 547.912 269.846 545.782C270.082 545.349 270.799 544.041 270.806 542.234C270.82 539.716 269.457 537.89 269.037 537.389C266.027 533.787 259.015 534.031 254.359 536.515C253.13 537.175 251.438 538.075 250.741 539.909C250.57 540.356 250.478 540.808 250.447 541.26Z" fill="white"/>
<path d="M270.476 544.66C270.406 544.922 270.28 545.26 270.058 545.624C269.921 545.848 269.773 546.03 269.641 546.175C269.281 545.692 268.7 545.025 267.838 544.413C267.838 544.413 266.236 543.277 264.317 542.996C260.613 542.451 259.073 545.66 255.668 545.538C254.43 545.495 252.62 544.996 250.464 542.717C250.36 542.317 250.271 541.716 250.398 541.013C250.443 540.773 250.504 540.562 250.573 540.375C250.574 540.497 250.59 540.676 250.641 540.885C251.077 542.722 253.748 543.973 255.839 544C258.576 544.034 259.21 541.956 261.762 541.336C263.567 540.898 266.346 541.192 270.476 544.66Z" fill="white"/>
<path d="M10.1214 388.263C8.1564 388.19 6.74787 387.479 6.25693 387.231C3.61413 385.899 2.37245 383.713 1.9645 382.992C1.64003 382.414 1.03969 381.21 0.710753 379.618C0.0725913 376.533 0.179572 370.367 4.63521 366.798C5.64202 365.989 9.21806 363.453 12.8915 364.72C15.3698 365.574 16.608 367.727 17.3456 369.012C20.3095 374.165 20.8573 382.084 16.5842 385.899C15.8156 386.585 13.6996 388.19 10.6729 388.264C10.4856 388.271 10.2988 388.269 10.1214 388.263ZM10.9557 366.13C8.60328 366.043 6.42802 367.607 5.73428 368.166C1.94334 371.204 1.87545 376.567 2.43479 379.256C2.71619 380.617 3.2206 381.636 3.49701 382.123C3.8742 382.792 4.88337 384.568 7.04888 385.662C7.48935 385.884 8.81974 386.56 10.6257 386.51C13.1427 386.444 14.9247 385.024 15.4129 384.589C18.9172 381.466 18.4522 374.465 15.8221 369.89C15.1237 368.682 14.171 367.02 12.3158 366.381C11.8636 366.224 11.4084 366.147 10.9557 366.13Z" fill="white"/>
<path d="M8.1907 386.256C7.92655 386.195 7.58497 386.079 7.21417 385.869C6.98529 385.739 6.79894 385.597 6.64941 385.47C7.12135 385.095 7.76998 384.492 8.35412 383.612C8.35412 383.612 9.4384 381.974 9.65938 380.047C10.087 376.329 6.83118 374.89 6.84526 371.483C6.84909 370.245 7.29065 368.42 9.4998 366.193C9.89671 366.077 10.4943 365.968 11.2008 366.074C11.4425 366.111 11.6555 366.165 11.8448 366.228C11.7231 366.233 11.5447 366.255 11.3369 366.312C9.51448 366.806 8.34841 369.515 8.38777 371.606C8.44061 374.342 10.5368 374.911 11.2376 377.442C11.7321 379.232 11.526 382.019 8.1907 386.256Z" fill="white"/>
</svg>
