<svg width="40" height="40" viewBox="0 0 40 40" fill="none" xmlns="http://www.w3.org/2000/svg">
<path fill-rule="evenodd" clip-rule="evenodd" d="M20 40C31.0457 40 40 31.0457 40 20C40 8.9543 31.0457 0 20 0C8.9543 0 0 8.9543 0 20C0 31.0457 8.9543 40 20 40ZM17.6988 16.9341H21.5479V18.7886C22.1035 17.7225 23.5247 16.763 25.6605 16.763C29.7551 16.763 30.7254 18.8865 30.7254 22.7828V30H26.5818V23.6703C26.5818 21.4514 26.0262 20.1993 24.6152 20.1993C22.6578 20.1993 21.8438 21.5493 21.8438 23.6703V30H17.6988V16.9341ZM10.5924 29.8302H14.7374V16.763H10.5924V29.8289V29.8302ZM15.3304 12.5011C15.3382 12.8416 15.2751 13.1802 15.1447 13.4969C15.0143 13.8137 14.8192 14.1023 14.571 14.3457C14.3228 14.5892 14.0263 14.7826 13.6991 14.9147C13.3719 15.0468 13.0205 15.1148 12.6655 15.1148C12.3106 15.1148 11.9592 15.0468 11.6319 14.9147C11.3047 14.7826 11.0083 14.5892 10.7601 14.3457C10.5119 14.1023 10.3168 13.8137 10.1864 13.4969C10.056 13.1802 9.99283 12.8416 10.0006 12.5011C10.016 11.8327 10.3035 11.1967 10.8016 10.7292C11.2997 10.2618 11.9688 10 12.6655 10C13.3623 10 14.0314 10.2618 14.5295 10.7292C15.0276 11.1967 15.3151 11.8327 15.3304 12.5011Z" fill="white"/>
</svg>
