<svg width="297" height="396" viewBox="0 0 297 396" fill="none" xmlns="http://www.w3.org/2000/svg">
<path fill-rule="evenodd" clip-rule="evenodd" d="M296.5 148.25C296.5 276.733 148.25 395.334 148.25 395.334C148.25 395.334 0 276.733 0 148.25C0 66.3765 66.3765 0 148.25 0C230.124 0 296.5 66.3765 296.5 148.25ZM170.94 203.036C163.746 206.016 156.034 207.55 148.247 207.55C132.52 207.55 117.436 201.302 106.316 190.181C95.1946 179.06 88.947 163.977 88.947 148.25C88.947 132.523 95.1946 117.439 106.316 106.318C117.436 95.1975 132.52 88.9499 148.247 88.9499C156.034 88.9499 163.746 90.4837 170.94 93.4638C178.135 96.4439 184.672 100.812 190.178 106.318C195.685 111.825 200.053 118.362 203.033 125.557C206.013 132.751 207.547 140.462 207.547 148.25C207.547 156.037 206.013 163.748 203.033 170.943C200.053 178.138 195.685 184.675 190.178 190.181C184.672 195.688 178.135 200.056 170.94 203.036Z" fill="black" fill-opacity="0.03"/>
</svg>
