<svg width="134" height="33" viewBox="0 0 134 33" fill="none" xmlns="http://www.w3.org/2000/svg">
<path d="M66.6756 4.61508C65.6437 4.61508 64.6977 4.63659 63.7303 4.59357C63.5153 4.59357 63.2358 4.44302 63.0853 4.27095C62.0964 3.06648 60.828 2.63631 59.4736 3.08799C58.2267 3.49665 57.3452 4.67961 57.2807 6.14218C57.2592 6.76592 57.2807 7.43268 57.4312 8.03491C57.7322 9.2824 58.5276 10.1212 59.7961 10.3793C61.086 10.6159 62.2254 10.3148 63.0638 9.17486C63.1928 9.00279 63.4723 8.83072 63.6873 8.80922C64.6762 8.7662 65.6652 8.78771 66.6541 8.78771C66.3101 11.5623 63.4508 13.4765 59.9465 13.3045C56.6358 13.1539 54.1419 10.4869 54.0344 7.00251C53.9269 3.08799 56.1843 0.442458 60.011 0.0337985C63.1498 -0.288827 66.1381 1.73296 66.6756 4.61508Z" fill="white"/>
<path d="M66.6969 27.414C65.88 30.5757 62.8272 32.4254 59.4949 31.8877C55.8401 31.2855 53.8192 28.5969 54.0127 24.6394C54.1847 21.3056 56.743 18.8106 60.1613 18.6385C63.3646 18.4665 66.2239 20.4668 66.6324 23.2413C65.622 23.2413 64.6115 23.2628 63.6011 23.2198C63.4076 23.2198 63.1711 23.0478 63.0421 22.8757C62.2252 21.7573 61.1503 21.3486 59.8174 21.6282C58.4629 21.8863 57.6675 22.7682 57.3665 24.0587C57.0655 25.3492 57.1085 26.6181 57.8825 27.7581C59.0649 29.4788 61.6232 29.5433 62.9131 27.9087C63.0851 27.7151 63.3431 27.457 63.5581 27.4355C64.6115 27.3925 65.622 27.414 66.6969 27.414Z" fill="white"/>
<path d="M75.8551 22.7468C75.8551 22.2736 75.8551 21.9294 75.8551 21.5423C76.8871 21.5423 77.8975 21.5423 78.9939 21.5423C79.0154 21.7574 79.0369 21.9725 79.0369 22.209C79.0369 25.1557 79.0154 28.0808 79.0584 31.0275C79.0584 31.6297 78.9294 31.9093 78.263 31.8663C77.489 31.8018 76.7366 31.8448 75.9196 31.8448C75.8981 31.4146 75.8552 31.049 75.8337 30.6833C75.7692 30.6833 75.7047 30.6403 75.6832 30.6618C74.4362 31.9954 72.8883 32.2965 71.2115 31.7373C69.4486 31.1565 68.5241 29.7585 68.2017 27.9948C67.8577 26.1021 68.0512 24.2523 69.4271 22.7252C71.1255 20.8755 73.5548 20.854 75.8551 22.7468ZM73.5763 29.2208C74.9307 29.2208 75.8551 28.1669 75.8551 26.6613C75.8551 25.1987 74.8447 24.0588 73.5763 24.0803C72.2434 24.1018 71.2975 25.1557 71.3189 26.6613C71.3189 28.2099 72.2004 29.2208 73.5763 29.2208Z" fill="white"/>
<path d="M130.462 4.07734C130.505 3.66868 130.527 3.30304 130.57 2.91589C131.58 2.91589 132.59 2.91589 133.622 2.91589C133.622 6.35723 133.622 9.75555 133.622 13.2184C132.612 13.2184 131.623 13.2184 130.57 13.2184C130.548 12.8312 130.505 12.4441 130.484 11.9494C129.645 12.8097 128.742 13.3259 127.624 13.3905C125.775 13.498 124.185 12.5947 123.368 10.8525C122.529 9.06728 122.551 7.23907 123.26 5.41086C124.206 3.00192 127.689 1.45332 130.462 4.07734ZM130.505 8.0779C130.505 6.59382 129.559 5.47539 128.248 5.47539C126.936 5.47539 125.947 6.5508 125.947 8.03488C125.947 9.56198 126.85 10.6159 128.205 10.6159C129.559 10.6159 130.505 9.58349 130.505 8.0779Z" fill="white"/>
<path d="M102.492 9.7986C102.32 11.9279 99.8691 13.5841 97.2462 13.369C94.1934 13.1324 92.1941 10.788 92.4306 7.71229C92.6885 4.4 94.9459 2.48575 98.2352 2.72234C101.288 2.95894 103.072 5.28184 102.793 8.80921C101.61 8.80921 100.428 8.80921 99.2456 8.80921C98.0417 8.80921 96.8593 8.80921 95.6339 8.80921C95.6983 9.73407 96.0423 10.4223 96.8808 10.6804C97.7192 10.917 98.5147 10.874 99.1166 10.0782C99.2026 9.94916 99.3961 9.82011 99.5466 9.82011C100.514 9.77709 101.503 9.7986 102.492 9.7986ZM95.6769 7.00251C97.0098 7.00251 98.2997 7.00251 99.5896 7.00251C99.4391 5.90558 98.8371 5.32486 97.8267 5.28184C96.6228 5.23882 95.9563 5.73352 95.6769 7.00251Z" fill="white"/>
<path d="M90.6248 27.4355C90.5818 28.3389 90.9473 28.9196 91.7213 29.2637C92.4522 29.5864 93.3981 29.4573 93.8496 28.8766C94.1721 28.4894 94.4946 28.4034 94.946 28.4249C95.763 28.4464 96.6014 28.4249 97.5474 28.4249C97.1819 29.7584 96.4294 30.6833 95.3115 31.35C92.9682 32.7051 89.6789 31.9953 88.2385 29.8229C86.7121 27.4785 87.2066 23.8651 89.3564 22.3595C91.1623 21.0905 93.1617 20.983 95.1395 21.9079C97.0314 22.8112 97.7194 24.4889 97.8269 26.4891C97.8699 27.1774 97.6979 27.4785 96.9024 27.457C94.8386 27.3925 92.7532 27.4355 90.6248 27.4355ZM94.4946 25.6288C94.4301 24.4243 93.7421 23.8436 92.5167 23.8866C91.3988 23.9081 90.6893 24.5964 90.7108 25.6288C91.9577 25.6288 93.2047 25.6288 94.4946 25.6288Z" fill="white"/>
<path d="M73.4474 2.72235C76.6292 2.72235 78.8865 4.95922 78.865 8.09944C78.8435 11.2182 76.5647 13.412 73.3614 13.3905C70.2226 13.369 68.0728 11.2182 68.0513 8.09944C68.0513 4.93771 70.2656 2.72235 73.4474 2.72235ZM75.5973 7.88436C75.5758 7.75531 75.5758 7.43269 75.5113 7.13157C75.2748 6.16369 74.4578 5.49693 73.5119 5.47542C72.609 5.45391 71.706 5.97012 71.5125 6.87347C71.362 7.62626 71.3406 8.46509 71.491 9.21788C71.706 10.2503 72.566 10.702 73.5979 10.6374C74.8448 10.5299 75.5973 9.54051 75.5973 7.88436Z" fill="white"/>
<path d="M80.6064 2.91594C81.6814 2.91594 82.6703 2.91594 83.7022 2.91594C83.7237 3.30309 83.7452 3.62572 83.7452 3.86231C84.5192 3.51817 85.2716 3.04499 86.1101 2.85141C88.4964 2.3137 90.6463 3.88382 90.7968 6.31426C90.9258 8.44359 90.8828 10.5944 90.8613 12.7238C90.8613 12.8958 90.6033 13.2184 90.4528 13.24C89.5714 13.283 88.7114 13.2615 87.7225 13.2615C87.7225 11.9064 87.7225 10.6374 87.7225 9.36845C87.7225 8.68018 87.7655 7.97041 87.6795 7.28214C87.5505 5.99164 86.7765 5.36789 85.5296 5.43242C84.4332 5.49694 83.7452 6.22823 83.7452 7.47571C83.7237 9.08884 83.7452 10.6805 83.7452 12.2936C83.7452 12.5732 83.7452 12.8743 83.7452 13.2184C82.6703 13.2184 81.6814 13.2184 80.6064 13.2184C80.6064 9.77711 80.6064 6.37879 80.6064 2.91594Z" fill="white"/>
<path d="M114.037 6.59388C113.048 6.59388 112.102 6.61538 111.177 6.57237C110.962 6.57237 110.683 6.4003 110.554 6.22823C109.608 5.02376 107.974 5.19583 107.415 6.59388C107.028 7.58326 107.007 8.63717 107.458 9.62656C108.038 10.9171 109.672 11.0461 110.532 9.92767C110.704 9.71259 111.048 9.51901 111.328 9.49751C112.123 9.43298 112.919 9.476 113.736 9.476C113.822 9.476 113.886 9.49751 113.972 9.49751C113.994 11.4763 111.887 13.24 109.371 13.369C106.491 13.5196 104.212 11.6483 103.954 8.93829C103.631 5.53996 105.265 3.19555 108.296 2.74388C111.134 2.33522 113.564 3.92684 114.037 6.59388Z" fill="white"/>
<path d="M84.8627 31.8017C83.7448 31.8017 82.7344 31.8017 81.6594 31.8017C81.6594 29.2422 81.6594 26.7257 81.6594 24.1662C81.251 24.1232 80.9285 24.0802 80.5415 24.0587C80.5415 23.2198 80.5415 22.4025 80.5415 21.5422C80.8855 21.5207 81.208 21.4992 81.5949 21.4777C81.6594 20.1441 81.8314 18.8536 83.0568 18.0363C84.0458 17.3696 85.1852 17.2405 86.4106 17.3265C86.4106 18.1869 86.4106 19.0257 86.4106 19.8645C84.8627 20.3377 84.8412 20.3592 84.8842 21.4992C85.1422 21.4992 85.4002 21.4992 85.6582 21.4992C85.8947 21.4992 86.1311 21.4992 86.4321 21.4992C86.4321 22.338 86.4321 23.1553 86.4321 24.0587C85.9592 24.0587 85.4647 24.0587 84.8627 24.0587C84.8627 26.6612 84.8627 29.1992 84.8627 31.8017Z" fill="white"/>
<path d="M119.476 2.873C120.228 2.873 120.873 2.873 121.539 2.873C121.539 3.75484 121.539 4.57216 121.539 5.47551C120.873 5.47551 120.249 5.47551 119.54 5.47551C119.54 7.02412 119.497 8.48669 119.583 9.94926C119.583 10.1643 120.056 10.4439 120.378 10.5515C120.722 10.659 121.109 10.573 121.561 10.573C121.561 11.4548 121.561 12.2937 121.561 13.2615C120.185 13.2831 118.766 13.4551 117.519 12.5948C116.595 11.9495 116.358 10.9601 116.337 9.90624C116.315 8.46518 116.337 7.02412 116.337 5.56155C115.885 5.51853 115.52 5.49702 115.111 5.47551C115.111 4.63669 115.111 3.81937 115.111 2.95903C115.477 2.93752 115.842 2.91602 116.315 2.873C116.315 2.07719 116.315 1.25987 116.315 0.399536C117.412 0.399536 118.422 0.399536 119.497 0.399536C119.476 1.15233 119.476 1.94814 119.476 2.873Z" fill="white"/>
<path d="M94.752 16.3587C94.9025 18.7461 94.9025 18.7461 92.8816 19.6065C92.0431 19.9506 91.2262 20.2947 90.3018 20.6819C90.3018 20.0151 90.2803 19.4559 90.3233 18.8967C90.3448 18.7031 90.4952 18.445 90.6457 18.359C91.9787 17.6707 93.3331 17.047 94.752 16.3587Z" fill="white"/>
<path d="M10.3145 27.2055H17.1631C17.6853 27.2055 18.1482 27.3953 18.528 27.7628C18.9079 28.1304 19.1096 28.581 19.1096 29.1028C19.1096 29.6245 18.9197 30.0751 18.528 30.4427C18.1482 30.8103 17.6853 31 17.1631 31H10.0771C9.175 31 8.23732 30.7154 7.27591 30.1462C6.31449 29.5771 5.63794 28.9368 5.26999 28.2253L0.878331 19.7589C0.296733 18.5375 0 17.2806 0 16.0119C0 14.6008 0.272995 13.3676 0.830854 12.336L5.25812 3.96443C5.68541 3.18182 6.33823 2.49407 7.22843 1.90119C8.11863 1.29644 8.97322 1 9.80407 1H17.3055C17.8277 1 18.2788 1.18972 18.6467 1.56917C19.0147 1.94862 19.2046 2.38735 19.2046 2.89723C19.2046 3.41897 19.0147 3.88142 18.6467 4.26087C18.2788 4.64032 17.8277 4.8419 17.3055 4.8419H10.0771C9.47173 4.8419 8.98509 5.19763 8.60527 5.90909L4.39166 13.7589C4.05931 14.3755 3.89314 15.1107 3.89314 15.9526C3.89314 16.8419 4.07118 17.6245 4.42726 18.3004L8.45097 26.0198C8.84266 26.8024 9.45986 27.2055 10.3145 27.2055Z" fill="white"/>
<path d="M35.6675 27.2055H28.8189C28.2966 27.2055 27.8337 27.3953 27.4539 27.7628C27.0741 28.1304 26.8723 28.581 26.8723 29.1028C26.8723 29.6245 27.0622 30.0751 27.4539 30.4427C27.8337 30.8103 28.2966 31 28.8189 31H35.9167C36.8188 31 37.7565 30.7154 38.7179 30.1462C39.6793 29.5771 40.3559 28.9368 40.7238 28.2253L45.1036 19.7589C45.6852 18.5375 45.9819 17.2925 45.9819 16.0119C45.9819 14.6008 45.7089 13.3676 45.1511 12.336L40.7238 3.96443C40.2965 3.18182 39.6437 2.49407 38.7535 1.90119C37.8633 1.29644 37.0087 1 36.1779 1H28.6764C28.1542 1 27.7032 1.18972 27.3352 1.56917C26.9673 1.94862 26.7773 2.38735 26.7773 2.89723C26.7773 3.41897 26.9673 3.88142 27.3352 4.26087C27.7032 4.64032 28.1542 4.8419 28.6764 4.8419H35.9049C36.5102 4.8419 36.9968 5.19763 37.3767 5.90909L41.5903 13.7589C41.9226 14.3755 42.0888 15.1107 42.0888 15.9526C42.0888 16.8419 41.9108 17.6245 41.5547 18.3004L37.531 26.0198C37.1393 26.8024 36.5221 27.2055 35.6675 27.2055Z" fill="white"/>
<path d="M23.5 6C19.9095 6 17 10.479 17 16C17 21.521 19.9095 26 23.5 26C27.0905 26 30 21.521 30 16C30 10.479 27.1029 6 23.5 6ZM25.1219 19.9401C24.9486 21.9401 23.9457 23.4491 23.3762 24.1916C23.6238 23.6766 23.7229 23.2455 23.7724 22.9461C23.8095 22.7066 23.8219 22.4431 23.8343 21.9281C23.8467 21.5928 23.8467 21.2575 23.8343 20.9341C23.8219 20.6108 23.7971 20.2754 23.7724 19.9641C23.6981 19.3174 23.5743 18.6946 23.4133 18.0838C23.24 17.4731 23.0048 16.8862 22.7448 16.2635C22.4848 15.6407 22.2 14.9581 22.039 14.2036C22.0143 14.0958 21.7914 13.0778 21.9152 11.9401C22.1133 9.89222 23.3143 8.41916 23.8838 7.80838C23.6486 8.39521 23.4133 9.13772 23.2895 10.024C23.2524 10.2994 23.1781 11.0419 23.24 11.9641C23.2895 12.5988 23.4133 13.2096 23.599 13.7964C23.7848 14.3832 24.0571 14.9701 24.3295 15.6287C24.6019 16.2754 24.8619 16.994 24.9981 17.7246C25.0352 17.8922 25.221 18.8503 25.1219 19.9401Z" fill="white"/>
</svg>
