<svg width="160" height="34" viewBox="0 0 160 34" fill="none" xmlns="http://www.w3.org/2000/svg">
<path d="M92.6441 5.60357C91.6147 5.60357 90.6711 5.62503 89.7061 5.58212C89.4917 5.58212 89.2129 5.43193 89.0628 5.2603C88.0763 4.05883 86.811 3.62974 85.46 4.08029C84.2162 4.48793 83.337 5.66794 83.2726 7.12686C83.2512 7.74905 83.2726 8.41414 83.4227 9.01487C83.723 10.2592 84.5164 11.096 85.7817 11.3534C87.0684 11.5894 88.205 11.2891 89.0413 10.152C89.17 9.98034 89.4488 9.8087 89.6632 9.78725C90.6497 9.74434 91.6362 9.76579 92.6226 9.76579C92.2795 12.5335 89.4273 14.4429 85.9318 14.2713C82.6293 14.1211 80.1417 11.4607 80.0344 7.98505C79.9272 4.08029 82.1789 1.44135 85.9961 1.03371C89.1271 0.711893 92.1079 2.72864 92.6441 5.60357Z" fill="white"/>
<path d="M92.6652 28.3456C91.8503 31.4994 88.8051 33.3445 85.4812 32.8082C81.8355 32.2074 79.8197 29.5256 80.0127 25.5779C80.1843 22.2525 82.7362 19.7637 86.146 19.5921C89.3413 19.4204 92.1934 21.4157 92.6009 24.1834C91.593 24.1834 90.5851 24.2048 89.5772 24.1619C89.3842 24.1619 89.1483 23.9903 89.0196 23.8187C88.2047 22.703 87.1324 22.2954 85.8028 22.5743C84.4518 22.8317 83.6583 23.7114 83.3581 24.9987C83.0579 26.2859 83.1008 27.5518 83.8728 28.6889C85.0523 30.4053 87.6042 30.4696 88.8909 28.8391C89.0625 28.646 89.3198 28.3885 89.5343 28.3671C90.5851 28.3241 91.593 28.3456 92.6652 28.3456Z" fill="white"/>
<path d="M101.801 23.69C101.801 23.218 101.801 22.8747 101.801 22.4885C102.83 22.4885 103.838 22.4885 104.931 22.4885C104.953 22.7031 104.974 22.9176 104.974 23.1536C104.974 26.0929 104.953 29.0108 104.996 31.9501C104.996 32.5508 104.867 32.8297 104.202 32.7868C103.43 32.7225 102.68 32.7654 101.865 32.7654C101.843 32.3363 101.801 31.9715 101.779 31.6068C101.715 31.6068 101.65 31.5639 101.629 31.5854C100.385 32.9155 98.8411 33.2159 97.1684 32.6581C95.4099 32.0788 94.4878 30.6842 94.1661 28.925C93.823 27.0369 94.016 25.1918 95.3885 23.6686C97.0826 21.8234 99.5059 21.802 101.801 23.69ZM99.5274 30.1479C100.878 30.1479 101.801 29.0966 101.801 27.5948C101.801 26.1358 100.793 24.9987 99.5274 25.0202C98.1978 25.0417 97.2542 26.0929 97.2756 27.5948C97.2756 29.1395 98.1549 30.1479 99.5274 30.1479Z" fill="white"/>
<path d="M156.271 5.06722C156.314 4.65958 156.336 4.29485 156.379 3.90866C157.387 3.90866 158.395 3.90866 159.424 3.90866C159.424 7.34142 159.424 10.7313 159.424 14.1855C158.416 14.1855 157.429 14.1855 156.379 14.1855C156.357 13.7993 156.314 13.4131 156.293 12.9197C155.457 13.7778 154.556 14.2928 153.441 14.3571C151.596 14.4644 150.01 13.5633 149.195 11.8255C148.358 10.0447 148.38 8.22107 149.087 6.39741C150.031 3.99448 153.505 2.44974 156.271 5.06722ZM156.314 9.0578C156.314 7.57742 155.371 6.46178 154.063 6.46178C152.754 6.46178 151.768 7.53451 151.768 9.01489C151.768 10.5382 152.669 11.5895 154.02 11.5895C155.371 11.5895 156.314 10.5596 156.314 9.0578Z" fill="white"/>
<path d="M128.371 10.7742C128.2 12.8982 125.755 14.5502 123.138 14.3357C120.093 14.0997 118.099 11.7611 118.335 8.69308C118.592 5.38905 120.844 3.47958 124.125 3.71558C127.17 3.95158 128.95 6.26869 128.671 9.78727C127.492 9.78727 126.312 9.78727 125.133 9.78727C123.932 9.78727 122.752 9.78727 121.53 9.78727C121.594 10.7098 121.938 11.3964 122.774 11.6538C123.61 11.8898 124.404 11.8469 125.004 11.0531C125.09 10.9244 125.283 10.7956 125.433 10.7956C126.398 10.7527 127.385 10.7742 128.371 10.7742ZM121.573 7.98507C122.903 7.98507 124.189 7.98507 125.476 7.98507C125.326 6.89088 124.725 6.3116 123.718 6.26869C122.517 6.22578 121.852 6.71924 121.573 7.98507Z" fill="white"/>
<path d="M116.533 28.3671C116.49 29.2682 116.855 29.8475 117.627 30.1908C118.356 30.5126 119.3 30.3839 119.75 29.8046C120.072 29.4184 120.393 29.3326 120.844 29.354C121.659 29.3755 122.495 29.354 123.438 29.354C123.074 30.6842 122.323 31.6068 121.208 32.2719C118.871 33.6235 115.59 32.9155 114.153 30.7486C112.63 28.41 113.123 24.8056 115.268 23.3038C117.069 22.038 119.064 21.9307 121.037 22.8532C122.924 23.7543 123.61 25.4278 123.717 27.4231C123.76 28.1096 123.589 28.41 122.795 28.3886C120.736 28.3242 118.656 28.3671 116.533 28.3671ZM120.393 26.5649C120.329 25.3634 119.643 24.7842 118.42 24.8271C117.305 24.8485 116.598 25.5351 116.619 26.5649C117.863 26.5649 119.107 26.5649 120.393 26.5649Z" fill="white"/>
<path d="M99.3988 3.71558C102.573 3.71558 104.824 5.94687 104.803 9.07926C104.781 12.1902 102.508 14.3786 99.313 14.3571C96.1821 14.3357 94.0376 12.1902 94.0161 9.07926C94.0161 5.92541 96.2249 3.71558 99.3988 3.71558ZM101.543 8.86471C101.522 8.73598 101.522 8.41416 101.458 8.1138C101.222 7.14833 100.407 6.48324 99.4631 6.46178C98.5624 6.44033 97.6618 6.95524 97.4688 7.85634C97.3186 8.60726 97.2972 9.44399 97.4473 10.1949C97.6618 11.2247 98.5195 11.6753 99.5489 11.6109C100.793 11.5036 101.543 10.5167 101.543 8.86471Z" fill="white"/>
<path d="M106.54 3.90868C107.612 3.90868 108.599 3.90868 109.628 3.90868C109.65 4.29486 109.671 4.61669 109.671 4.85269C110.443 4.50941 111.194 4.03741 112.03 3.84431C114.41 3.30795 116.555 4.87414 116.705 7.29853C116.834 9.42254 116.791 11.568 116.769 13.692C116.769 13.8637 116.512 14.1855 116.362 14.2069C115.483 14.2499 114.625 14.2284 113.638 14.2284C113.638 12.8768 113.638 11.6109 113.638 10.3451C113.638 9.65855 113.681 8.95054 113.595 8.26399C113.467 6.9767 112.695 6.35452 111.451 6.41888C110.357 6.48325 109.671 7.21271 109.671 8.45708C109.65 10.0662 109.671 11.6538 109.671 13.2629C109.671 13.5419 109.671 13.8422 109.671 14.1855C108.599 14.1855 107.612 14.1855 106.54 14.1855C106.54 10.7527 106.54 7.36289 106.54 3.90868Z" fill="white"/>
<path d="M139.887 7.57746C138.9 7.57746 137.957 7.59892 137.035 7.55601C136.82 7.55601 136.541 7.38437 136.413 7.21273C135.469 6.01127 133.839 6.1829 133.282 7.57746C132.896 8.56438 132.874 9.61566 133.325 10.6026C133.904 11.8899 135.533 12.0186 136.391 10.9029C136.563 10.6884 136.906 10.4953 137.185 10.4739C137.978 10.4095 138.772 10.4524 139.587 10.4524C139.672 10.4524 139.737 10.4739 139.822 10.4739C139.844 12.4477 137.742 14.207 135.233 14.3357C132.36 14.4859 130.086 12.6193 129.829 9.91603C129.507 6.52618 131.137 4.18761 134.161 3.73706C136.992 3.32942 139.415 4.91708 139.887 7.57746Z" fill="white"/>
<path d="M110.786 32.7224C109.671 32.7224 108.663 32.7224 107.591 32.7224C107.591 30.1692 107.591 27.659 107.591 25.1059C107.183 25.063 106.862 25.0201 106.476 24.9987C106.476 24.1619 106.476 23.3466 106.476 22.4885C106.819 22.467 107.14 22.4455 107.526 22.4241C107.591 21.0939 107.762 19.8066 108.985 18.9913C109.971 18.3262 111.108 18.1975 112.33 18.2833C112.33 19.1415 112.33 19.9782 112.33 20.815C110.786 21.287 110.765 21.3084 110.807 22.4455C111.065 22.4455 111.322 22.4455 111.579 22.4455C111.815 22.4455 112.051 22.4455 112.352 22.4455C112.352 23.2823 112.352 24.0976 112.352 24.9987C111.88 24.9987 111.386 24.9987 110.786 24.9987C110.786 27.5947 110.786 30.1263 110.786 32.7224Z" fill="white"/>
<path d="M145.312 3.86585C146.063 3.86585 146.706 3.86585 147.371 3.86585C147.371 4.7455 147.371 5.56078 147.371 6.46188C146.706 6.46188 146.084 6.46188 145.377 6.46188C145.377 8.00662 145.334 9.46554 145.42 10.9245C145.42 11.139 145.891 11.4179 146.213 11.5252C146.556 11.6325 146.942 11.5466 147.392 11.5466C147.392 12.4263 147.392 13.263 147.392 14.2285C146.02 14.2499 144.605 14.4216 143.361 13.5634C142.439 12.9198 142.203 11.9328 142.181 10.8816C142.16 9.44408 142.181 8.00662 142.181 6.5477C141.731 6.50479 141.366 6.48333 140.959 6.46188C140.959 5.62514 140.959 4.80986 140.959 3.95167C141.324 3.93022 141.688 3.90876 142.16 3.86585C142.16 3.07203 142.16 2.25675 142.16 1.39856C143.254 1.39856 144.262 1.39856 145.334 1.39856C145.312 2.14948 145.312 2.9433 145.312 3.86585Z" fill="white"/>
<path d="M120.651 17.3179C120.801 19.6993 120.801 19.6993 118.785 20.5575C117.948 20.9008 117.134 21.2441 116.211 21.6303C116.211 20.9652 116.19 20.4074 116.233 19.8495C116.254 19.6564 116.404 19.399 116.555 19.3132C117.884 18.6266 119.235 18.0044 120.651 17.3179Z" fill="white"/>
<path d="M31.151 6.45382L26.8768 10.5299C23.9612 7.45869 20.6918 5.916 17.0545 5.916C13.9833 5.916 11.3933 6.96333 9.28444 9.07214C7.17563 11.181 6.11414 13.7568 6.11414 16.8422C6.11414 18.9935 6.5812 20.89 7.5153 22.5601C8.44941 24.216 9.76565 25.5322 11.464 26.4805C13.1624 27.4287 15.0589 27.8958 17.1394 27.8958C18.9086 27.8958 20.5362 27.5703 22.0081 26.9051C23.48 26.2399 25.0935 25.0369 26.8626 23.2819L31.0095 27.6127C28.6317 29.9338 26.3955 31.5331 24.2726 32.4389C22.1638 33.3306 19.7436 33.7835 17.0403 33.7835C12.0443 33.7835 7.95405 32.1983 4.7696 29.028C1.58515 25.8436 0 21.7816 0 16.828C0 13.6294 0.721809 10.7705 2.17958 8.27957C3.63735 5.78862 5.7037 3.77888 8.40695 2.2645C11.1102 0.764268 14.0116 0 17.1394 0C19.786 0 22.3478 0.566124 24.7962 1.68422C27.2447 2.80232 29.3677 4.38746 31.151 6.45382Z" fill="white"/>
<path d="M38.9912 6.45382L43.2655 10.5299C46.181 7.45869 49.4504 5.916 53.0877 5.916C56.1589 5.916 58.749 6.96333 60.8578 9.07214C62.9666 11.1668 64.0139 13.7568 64.0139 16.8422C64.0139 18.9935 63.5469 20.89 62.6127 22.5601C61.6786 24.216 60.3624 25.5322 58.664 26.4805C56.9657 27.4287 55.0691 27.8958 52.9886 27.8958C51.2195 27.8958 49.5919 27.5703 48.12 26.9051C46.648 26.2399 45.0346 25.0368 43.2655 23.2819L39.1186 27.5986C41.4963 29.9197 43.7325 31.519 45.8555 32.4248C47.9643 33.3164 50.3845 33.7693 53.0877 33.7693C58.0838 33.7693 62.174 32.1842 65.3585 29.0139C68.5429 25.8436 70.1281 21.7816 70.1281 16.828C70.1281 13.6294 69.4062 10.7705 67.9485 8.27957C66.4907 5.78862 64.4243 3.77888 61.7211 2.2645C59.032 0.764268 56.1165 0 53.0028 0C50.3562 0 47.7944 0.566124 45.346 1.68422C42.8833 2.80232 40.7745 4.38746 38.9912 6.45382Z" fill="white"/>
<path d="M34.9952 10C32.236 10 30 13.3593 30 17.5C30 21.6407 32.236 25 34.9952 25C37.7545 25 39.9905 21.6407 39.9905 17.5C39.9905 13.3593 37.764 10 34.9952 10ZM36.2417 20.4551C36.1085 21.9551 35.3378 23.0868 34.9001 23.6437C35.0904 23.2575 35.1665 22.9341 35.2046 22.7096C35.2331 22.5299 35.2426 22.3323 35.2521 21.9461C35.2617 21.6946 35.2617 21.4431 35.2521 21.2006C35.2426 20.9581 35.2236 20.7066 35.2046 20.4731C35.1475 19.988 35.0523 19.521 34.9286 19.0629C34.7954 18.6048 34.6147 18.1647 34.4148 17.6976C34.215 17.2305 33.9962 16.7186 33.8725 16.1527C33.8535 16.0719 33.6822 15.3084 33.7774 14.4551C33.9296 12.9192 34.8525 11.8144 35.2902 11.3563C35.1094 11.7964 34.9286 12.3533 34.8335 13.018C34.8049 13.2246 34.7479 13.7814 34.7954 14.4731C34.8335 14.9491 34.9286 15.4072 35.0714 15.8473C35.2141 16.2874 35.4234 16.7275 35.6327 17.2216C35.8421 17.7066 36.0419 18.2455 36.1465 18.7934C36.1751 18.9192 36.3178 19.6377 36.2417 20.4551Z" fill="white"/>
</svg>
