<svg width="548" height="380" viewBox="0 0 548 380" fill="none" xmlns="http://www.w3.org/2000/svg">
<path d="M348.552 1.70407C304.682 -0.809732 294.697 3.96005 226.669 1.9619C191.045 0.930593 196.005 -0.358537 182.026 0.0926587C146.981 1.18842 94.5431 2.34863 53.0564 39.4111C15.5638 72.9285 5.83633 116.308 3.13068 129.779C0.682709 142.09 -5.63048 181.215 11.9563 225.304C16.1436 235.746 27.9969 262.688 62.1397 294.079C137.511 363.369 236.525 375.745 248.508 377.099C273.954 379.999 417.353 396.113 497.814 304.069C503.805 297.173 524.935 271.97 537.368 233.038C540.976 221.758 569.385 127.652 515.079 63.5823C492.338 36.7684 463.865 25.4885 444.216 17.7537C412.908 5.24918 387.655 3.83113 348.552 1.70407Z" fill="#F9F9F9"/>
</svg>
