<svg width="40" height="40" viewBox="0 0 40 40" fill="none" xmlns="http://www.w3.org/2000/svg">
<path fill-rule="evenodd" clip-rule="evenodd" d="M20 40C31.0457 40 40 31.0457 40 20C40 8.95435 31.0457 0 20 0C8.95428 0 0 8.95435 0 20C0 31.0457 8.95428 40 20 40ZM23.5582 25.1576C21.6761 24.4668 19.9703 23.3782 18.5604 21.9681C17.119 20.63 15.9978 18.9922 15.2781 17.1737L17.3515 14.7167C17.4058 14.6444 17.4351 14.5569 17.4351 14.4669C17.4351 14.3771 17.4058 14.2896 17.3515 14.2173L14.2043 9.61609C14.0948 9.44666 13.9478 9.30383 13.7744 9.19836C13.601 9.0929 13.4056 9.02747 13.203 9.00696C13.0003 8.98645 12.7955 9.01147 12.604 9.07996C12.4125 9.14856 12.2392 9.25903 12.0971 9.40295L9.80084 11.587C9.48102 11.8846 9.24457 12.2585 9.11438 12.6727C8.98425 13.0869 8.96478 13.5272 9.05792 13.9509C10.0009 18.2051 12.1758 22.0981 15.3187 25.1576C18.5328 28.187 22.5466 30.2638 26.9013 31.1505C27.3378 31.2405 27.7902 31.2225 28.218 31.0983C28.6458 30.9739 29.0356 30.7471 29.3529 30.438L31.5681 28.2806C31.7216 28.1401 31.8399 27.9664 31.9136 27.7732C31.9873 27.5798 32.0144 27.3723 31.9928 27.167C31.9712 26.9617 31.9014 26.764 31.7891 26.5898C31.7213 26.4847 31.6391 26.3899 31.5452 26.3077C31.4833 26.2538 31.4164 26.2053 31.3452 26.1631L26.6176 23.16C26.5421 23.1088 26.4526 23.0813 26.361 23.0813C26.2693 23.0813 26.1798 23.1088 26.1044 23.16L23.5582 25.1576Z" fill="white"/>
</svg>
