<svg width="26" height="26" viewBox="0 0 26 26" fill="none" xmlns="http://www.w3.org/2000/svg">
<path d="M11.5104 0H1.08333C0.484115 0 0 0.484115 0 1.08333V11.5104C0 11.6594 0.121875 11.7813 0.270833 11.7813H11.5104C11.6594 11.7813 11.7813 11.6594 11.7813 11.5104V0.270833C11.7813 0.121875 11.6594 0 11.5104 0ZM9.61458 9.61458H2.16667V2.16667H9.61458V9.61458ZM4.94271 7.10938H6.83854C6.9875 7.10938 7.10938 6.9875 7.10938 6.83854V4.94271C7.10938 4.79375 6.9875 4.67188 6.83854 4.67188H4.94271C4.79375 4.67188 4.67188 4.79375 4.67188 4.94271V6.83854C4.67188 6.9875 4.79375 7.10938 4.94271 7.10938ZM11.5104 14.2188H0.270833C0.121875 14.2188 0 14.3406 0 14.4896V24.9167C0 25.5159 0.484115 26 1.08333 26H11.5104C11.6594 26 11.7813 25.8781 11.7813 25.7292V14.4896C11.7813 14.3406 11.6594 14.2188 11.5104 14.2188ZM9.61458 23.8333H2.16667V16.3854H9.61458V23.8333ZM4.94271 21.3281H6.83854C6.9875 21.3281 7.10938 21.2063 7.10938 21.0573V19.1615C7.10938 19.0125 6.9875 18.8906 6.83854 18.8906H4.94271C4.79375 18.8906 4.67188 19.0125 4.67188 19.1615V21.0573C4.67188 21.2063 4.79375 21.3281 4.94271 21.3281ZM24.9167 0H14.4896C14.3406 0 14.2188 0.121875 14.2188 0.270833V11.5104C14.2188 11.6594 14.3406 11.7813 14.4896 11.7813H25.7292C25.8781 11.7813 26 11.6594 26 11.5104V1.08333C26 0.484115 25.5159 0 24.9167 0ZM23.8333 9.61458H16.3854V2.16667H23.8333V9.61458ZM19.1615 7.10938H21.0573C21.2063 7.10938 21.3281 6.9875 21.3281 6.83854V4.94271C21.3281 4.79375 21.2063 4.67188 21.0573 4.67188H19.1615C19.0125 4.67188 18.8906 4.79375 18.8906 4.94271V6.83854C18.8906 6.9875 19.0125 7.10938 19.1615 7.10938ZM25.7292 14.2188H24.1042C23.9552 14.2188 23.8333 14.3406 23.8333 14.4896V19.026H21.1927V14.4896C21.1927 14.3406 21.0708 14.2188 20.9219 14.2188H14.4896C14.3406 14.2188 14.2188 14.3406 14.2188 14.4896V25.7292C14.2188 25.8781 14.3406 26 14.4896 26H16.1146C16.2635 26 16.3854 25.8781 16.3854 25.7292V17.4688H19.026V20.9219C19.026 21.0708 19.1479 21.1927 19.2969 21.1927H25.7292C25.8781 21.1927 26 21.0708 26 20.9219V14.4896C26 14.3406 25.8781 14.2188 25.7292 14.2188ZM20.9219 23.8333H19.2969C19.1479 23.8333 19.026 23.9552 19.026 24.1042V25.7292C19.026 25.8781 19.1479 26 19.2969 26H20.9219C21.0708 26 21.1927 25.8781 21.1927 25.7292V24.1042C21.1927 23.9552 21.0708 23.8333 20.9219 23.8333ZM25.7292 23.8333H24.1042C23.9552 23.8333 23.8333 23.9552 23.8333 24.1042V25.7292C23.8333 25.8781 23.9552 26 24.1042 26H25.7292C25.8781 26 26 25.8781 26 25.7292V24.1042C26 23.9552 25.8781 23.8333 25.7292 23.8333Z" fill="#6C6B6B"/>
</svg>
