<svg width="40" height="40" viewBox="0 0 40 40" fill="none" xmlns="http://www.w3.org/2000/svg">
<path fill-rule="evenodd" clip-rule="evenodd" d="M20 40C31.0457 40 40 31.0457 40 20C40 8.95435 31.0457 0 20 0C8.95428 0 0 8.95435 0 20C0 31.0457 8.95428 40 20 40ZM31.0906 13.1202C30.2488 13.4807 29.3393 13.726 28.3621 13.8557C29.3844 13.2788 30.0834 12.4351 30.4592 11.3245C29.4821 11.8726 28.4749 12.2404 27.4376 12.4279C26.5206 11.476 25.3706 11 23.9875 11C22.6797 11 21.5635 11.4435 20.639 12.3306C19.7144 13.2175 19.2522 14.2885 19.2522 15.5432C19.2522 15.9615 19.2897 16.3077 19.3649 16.5818C17.4257 16.4807 15.6067 16.012 13.908 15.1755C12.2092 14.339 10.7661 13.2212 9.57849 11.8221C9.14252 12.5432 8.9245 13.3077 8.9245 14.1154C8.9245 15.7596 9.60852 17.0216 10.9765 17.9015C10.27 17.887 9.51831 17.6995 8.72156 17.339V17.3822C8.72156 18.464 9.09741 19.4266 9.84906 20.2704C10.6007 21.1141 11.5252 21.637 12.6226 21.839C12.1867 21.9543 11.8033 22.012 11.4726 22.012C11.2772 22.012 10.9841 21.9832 10.5932 21.9255C10.9089 22.8341 11.4689 23.5841 12.2731 24.1755C13.0774 24.7668 13.9907 25.0697 15.0129 25.0841C13.269 26.3822 11.3073 27.0312 9.1275 27.0312C8.73663 27.0312 8.36078 27.0096 8 26.9663C10.2249 28.3221 12.6452 29 15.2609 29C16.9446 29 18.5231 28.744 19.9963 28.2319C21.4695 27.72 22.7323 27.0349 23.7846 26.1766C24.8369 25.3185 25.7427 24.3306 26.5018 23.2128C27.261 22.095 27.8247 20.9266 28.1931 19.7079C28.5613 18.4891 28.7455 17.274 28.7455 16.0625C28.7455 15.9265 28.7434 15.8083 28.7393 15.708C28.7356 15.6167 28.7301 15.5402 28.723 15.4784C29.67 14.8293 30.4592 14.0432 31.0906 13.1202Z" fill="white"/>
</svg>
