<svg width="40" height="40" viewBox="0 0 40 40" fill="none" xmlns="http://www.w3.org/2000/svg">
<path fill-rule="evenodd" clip-rule="evenodd" d="M20 40C31.0459 40 40 31.0457 40 20C40 8.95435 31.0459 0 20 0C8.9541 0 0 8.95435 0 20C0 31.0457 8.9541 40 20 40ZM14.6807 11.4999C19.4307 8.62488 25.5557 9.99988 28.5557 14.6249C31.4307 19.3749 30.0557 25.5 25.4307 28.5C23.8057 29.5 21.9307 30 20.0557 30C18.3057 30 16.5557 29.5 14.9307 28.625L14.5557 28.375L10.8057 29.375L11.8057 25.625L11.5557 25.25C8.55566 20.6249 10.0557 14.3749 14.6807 11.4999ZM23.9307 25.625C24.8057 25.5 25.4307 25 25.9307 24.25C26.1807 23.875 26.1807 23.375 26.0557 23C25.9307 22.875 25.6807 22.75 25.4307 22.625L23.4307 21.6249C23.1807 21.4999 23.0557 21.4999 22.8057 21.7499C22.5557 21.9999 21.9307 22.625 21.8057 22.875C21.6807 23.125 21.4307 23.125 21.1807 23C20.3057 22.625 19.5557 22.125 18.8057 21.4999C18.1807 20.8749 17.5557 20.1249 17.0557 19.3749C16.9307 19.1249 17.0557 18.8749 17.3057 18.7499C17.3682 18.6874 17.4307 18.5936 17.4932 18.4999C17.5557 18.4061 17.6182 18.3124 17.6807 18.2499C17.8057 18.1249 17.9307 17.8749 17.8057 17.6249C17.8672 17.5635 17.8984 17.4719 17.8994 17.3799C17.9004 17.2844 17.8691 17.1885 17.8057 17.1249C17.8057 16.9999 17.1807 15.4999 16.9307 14.8749C16.835 14.491 16.665 14.4019 16.4775 14.3811C16.4209 14.3749 16.3633 14.3749 16.3057 14.3749H15.6807C15.4307 14.3749 15.1807 14.4999 14.9307 14.7499C14.3057 15.3749 13.9307 16.2499 13.9307 17.2499C14.0557 18.3749 14.4307 19.4999 15.1807 20.3749C16.4307 22.25 18.1807 23.875 20.3057 24.875C22.4873 25.7478 23.2412 25.6683 23.7305 25.634C23.8018 25.629 23.8672 25.625 23.9307 25.625Z" fill="white"/>
</svg>
