<svg width="40" height="40" viewBox="0 0 40 40" fill="none" xmlns="http://www.w3.org/2000/svg">
<path fill-rule="evenodd" clip-rule="evenodd" d="M20 40C31.0457 40 40 31.0457 40 20C40 8.95435 31.0457 0 20 0C8.95428 0 0 8.95435 0 20C0 31.0457 8.95428 40 20 40ZM24.7704 11.151C23.4303 11.0754 21.7935 11.0377 19.8599 11.0377C18.0029 10.9623 16.3661 11 14.9494 11.151C13.5327 11.302 12.4224 11.453 11.6183 11.6039C10.8142 11.7549 10.1346 12.0663 9.57941 12.5381C9.02423 13.01 8.67004 13.5479 8.51691 14.1517C8.36377 14.7557 8.22974 15.5673 8.11487 16.5864C8 17.6055 7.97131 18.7473 8.02869 20.0118C8.08612 21.2762 8.11487 22.4181 8.11487 23.4373C8.11487 24.4563 8.2489 25.2679 8.51691 25.8718C8.78491 26.4757 9.1391 27.0042 9.57941 27.4572C10.0197 27.91 10.6993 28.231 11.6183 28.4197C12.5372 28.6084 13.6476 28.7594 14.9494 28.8726C16.2512 28.9858 17.8881 29.0236 19.8599 28.9858C21.8318 28.9481 23.4686 28.9104 24.7704 28.8726C26.0722 28.8348 27.1826 28.6838 28.1015 28.4197C29.0204 28.1554 29.7001 27.8346 30.1404 27.4572C30.5807 27.0797 30.9349 26.5513 31.2029 25.8718C31.4709 25.1924 31.6145 24.3809 31.6337 23.4373L31.6911 20.0118C31.7102 18.6719 31.6911 17.53 31.6337 16.5864C31.5762 15.6427 31.4326 14.8312 31.2029 14.1517C30.9731 13.4723 30.619 12.9344 30.1404 12.5381C29.6618 12.1418 28.9822 11.8304 28.1015 11.6039C27.2209 11.3774 26.1105 11.2264 24.7704 11.151ZM23.9951 20.0118C23.9951 20.1627 23.8802 20.2949 23.6505 20.4081L18.338 22.8428C18.1273 22.9371 17.9359 22.9371 17.7636 22.8428C17.5913 22.7484 17.5051 22.5691 17.5051 22.3048V17.7188C17.5243 17.4357 17.6104 17.2469 17.7636 17.1526C17.9167 17.0582 18.1082 17.0676 18.338 17.1809L23.6505 19.6155C23.8802 19.7288 23.9951 19.8608 23.9951 20.0118Z" fill="white"/>
</svg>
